Coordinates
version=1
nRows=13
nColumns=22
inDegrees=yes

Units are S.I. units (second, meters, Newtons, ...)
If the header above contains a line with 'inDegrees', this indicates whether rotational values are in degrees (yes) or radians (no).

endheader
time	pelvis_tilt	pelvis_list	pelvis_rotation	pelvis_tx	pelvis_ty	pelvis_tz	hip_flexion_r	hip_adduction_r	hip_rotation_r	knee_angle_r	ankle_angle_r	subtalar_angle_r	hip_flexion_l	hip_adduction_l	hip_rotation_l	knee_angle_l	ankle_angle_l	subtalar_angle_l	lumbar_extension	lumbar_bending	lumbar_rotation
      2.55000000	     -7.60675791	     -7.21943878	      1.91118847	     -0.04039630	      0.97134737	      0.21635117	     22.34150389	      7.11751039	     -0.07082275	    -28.02005255	     17.37561060	     -3.99913642	     33.04272689	     -7.79214315	     -4.10543337	    -68.12265284	     10.54353902	     -2.38869372	     -1.84328501	      8.60338354	      7.93530195
      2.56000000	     -7.45337197	     -7.35347328	      2.45095722	     -0.03374416	      0.97197188	      0.21617802	     21.52184947	      7.15470128	     -0.46019335	    -27.57903274	     17.67824672	     -4.08229957	     33.72125026	     -7.96627215	     -4.57159467	    -66.77804722	     11.36914358	     -2.24332929	     -2.04384571	      8.66799792	      8.25197338
      2.57000000	     -7.30074259	     -7.50906049	      2.99485208	     -0.02710959	      0.97249359	      0.21596566	     20.70402460	      7.22455412	     -0.85603364	    -27.12979582	     17.97306925	     -4.16072090	     34.35738559	     -8.19199950	     -5.07926487	    -65.31197323	     12.15395015	     -2.13268002	     -2.23956620	      8.75195547	      8.55711832
      2.58000000	     -7.14018381	     -7.67895215	      3.54364063	     -0.02047972	      0.97293137	      0.21570271	     19.87722096	      7.32214431	     -1.24467304	    -26.67101551	     18.25912275	     -4.24225665	     34.94017070	     -8.46038420	     -5.63789937	    -63.73623838	     12.87725078	     -2.10695656	     -2.43953294	      8.84874763	      8.84099557
      2.59000000	     -6.97360738	     -7.85822096	      4.09993317	     -0.01386087	      0.97328476	      0.21537511	     19.04650612	      7.44123815	     -1.62796693	    -26.20768267	     18.54158038	     -4.32530659	     35.47275573	     -8.75533357	     -6.24307422	    -62.06212870	     13.52238317	     -2.20903924	     -2.64304771	      8.95341789	      9.10246330
      2.60000000	     -6.79861672	     -8.04707760	      4.66548383	     -0.00724682	      0.97355479	      0.21494955	     18.21451380	      7.57821209	     -2.01480666	    -25.75034360	     18.82350851	     -4.39937499	     35.95491462	     -9.06633655	     -6.88975563	    -60.30524770	     14.07779603	     -2.43349880	     -2.84973049	      9.07057270	      9.34603744
      2.61000000	     -6.61682423	     -8.23028404	      5.23941570	     -0.00063598	      0.97375724	      0.21440815	     17.37929525	      7.71811795	     -2.39138273	    -25.29528260	     19.10850145	     -4.46519008	     36.38114144	     -9.36576658	     -7.57737945	    -58.46618240	     14.54258141	     -2.75810084	     -3.06051436	      9.18584265	      9.55640928
      2.62000000	     -6.43446930	     -8.40880174	      5.81966921	      0.00596247	      0.97388601	      0.21375045	     16.54956863	      7.85904894	     -2.76636444	    -24.84453067	     19.39445899	     -4.51402033	     36.76052040	     -9.64678663	     -8.30216126	    -56.55506161	     14.91474810	     -3.12919948	     -3.27104357	      9.29845174	      9.73473035
      2.63000000	     -6.25706660	     -8.58929529	      6.40404069	      0.01253452	      0.97391721	      0.21296594	     15.74511718	      8.00054907	     -3.17899753	    -24.42162470	     19.69271058	     -4.53905748	     37.10577217	     -9.90768732	     -9.05777768	    -54.58839912	     15.21997999	     -3.45378514	     -3.47495363	      9.41834610	      9.89184824
      2.64000000	     -6.09118546	     -8.76016835	      6.99438213	      0.01909013	      0.97388053	      0.21204578	     14.94727517	      8.13726366	     -3.57434307	    -23.98303772	     19.98149178	     -4.53647355	     37.41425290	    -10.12131632	     -9.83500673	    -52.55700191	     15.42915424	     -3.73523710	     -3.66324188	      9.53205739	     10.01050608
      2.65000000	     -5.95844955	     -8.93730962	      7.58738154	      0.02558641	      0.97370006	      0.21099448	     14.20870977	      8.27069341	     -4.02856044	    -23.57378737	     20.28680085	     -4.51203269	     37.72538406	    -10.29231570	    -10.61476541	    -50.48690748	     15.58723556	     -3.88519956	     -3.81516954	      9.65136532	     10.12385285
      2.66000000	     -5.83376423	     -9.11012057	      8.19223344	      0.03206888	      0.97344411	      0.20982820	     13.48051994	      8.40217737	     -4.49060499	    -23.16110585	     20.58586397	     -4.45979168	     38.00384256	    -10.41613004	    -11.41021977	    -48.37704401	     15.68212594	     -3.93003990	     -3.95525704	      9.76304940	     10.18124193
      2.67000000	     -5.72347726	     -9.29006094	      8.80551468	      0.03851435	      0.97309132	      0.20851121	     12.78123395	      8.53695407	     -4.98231256	    -22.76193413	     20.87163763	     -4.38519471	     38.26859885	    -10.49732133	    -12.21133472	    -46.25056491	     15.70996302	     -3.85374621	     -4.07917391	      9.88714971	     10.22655406
